<svg width="40" height="237" viewBox="0 0 40 237" fill="none" xmlns="http://www.w3.org/2000/svg">
<path d="M20 61C8.97799 61 0 69.978 0 81C0 92.022 8.97799 101 20 101C31.022 101 40 92.022 40 81C40 69.978 31.022 61 20 61ZM20 65C28.8602 65 36 72.1398 36 81C36 89.0289 30.1306 95.626 22.4375 96.7969V85.7695H27.0938L27.8242 81.0391H22.4375V78.4531C22.4375 76.4871 23.078 74.7422 24.918 74.7422H27.8711V70.6133C27.3511 70.5433 26.2537 70.3906 24.1797 70.3906C19.8477 70.3906 17.3086 72.6786 17.3086 77.8906V81.0391H12.8555V85.7695H17.3086V96.7578C9.74058 95.4817 4 88.9405 4 81C4 72.1398 11.1398 65 20 65Z" fill="white"/>
<path d="M11.1111 130C4.98444 130 0 134.984 0 141.111V158.889C0 165.016 4.98444 170 11.1111 170H28.8889C35.0156 170 40 165.016 40 158.889V141.111C40 134.984 35.0156 130 28.8889 130H11.1111ZM11.1111 134.444H28.8889C32.5644 134.444 35.5556 137.436 35.5556 141.111V158.889C35.5556 162.564 32.5644 165.556 28.8889 165.556H11.1111C7.43556 165.556 4.44444 162.564 4.44444 158.889V141.111C4.44444 137.436 7.43556 134.444 11.1111 134.444ZM31.1111 136.667C30.5217 136.667 29.9565 136.901 29.5398 137.318C29.123 137.734 28.8889 138.3 28.8889 138.889C28.8889 139.478 29.123 140.043 29.5398 140.46C29.9565 140.877 30.5217 141.111 31.1111 141.111C31.7005 141.111 32.2657 140.877 32.6825 140.46C33.0992 140.043 33.3333 139.478 33.3333 138.889C33.3333 138.3 33.0992 137.734 32.6825 137.318C32.2657 136.901 31.7005 136.667 31.1111 136.667ZM20 138.889C13.8733 138.889 8.88889 143.873 8.88889 150C8.88889 156.127 13.8733 161.111 20 161.111C26.1267 161.111 31.1111 156.127 31.1111 150C31.1111 143.873 26.1267 138.889 20 138.889ZM20 143.333C23.6756 143.333 26.6667 146.324 26.6667 150C26.6667 153.676 23.6756 156.667 20 156.667C16.3244 156.667 13.3333 153.676 13.3333 150C13.3333 146.324 16.3244 143.333 20 143.333Z" fill="white"/>
<path d="M40 4C40 1.8 38.2 0 36 0H4C1.8 0 0 1.8 0 4V28C0 30.2 1.8 32 4 32H36C38.2 32 40 30.2 40 28V4ZM36 4L20 14L4 4H36ZM36 28H4V8L20 18L36 8V28Z" fill="white"/>
<path d="M7.86667 201.444C8 203.422 8.33333 205.356 8.86667 207.2L6.2 209.867C5.28889 207.2 4.71111 204.378 4.51111 201.444H7.86667ZM29.7778 228.156C31.6667 228.689 33.6 229.022 35.5556 229.156V232.467C32.6222 232.267 29.8 231.689 27.1111 230.8L29.7778 228.156ZM10 197H2.22222C1 197 0 198 0 199.222C0 220.089 16.9111 237 37.7778 237C39 237 40 236 40 234.778V227.022C40 225.8 39 224.8 37.7778 224.8C35.0222 224.8 32.3333 224.356 29.8444 223.533C29.6222 223.444 29.3778 223.422 29.1556 223.422C28.5778 223.422 28.0222 223.644 27.5778 224.067L22.6889 228.956C16.4 225.733 11.2444 220.6 8.04444 214.311L12.9333 209.422C13.5556 208.8 13.7333 207.933 13.4889 207.156C12.6667 204.667 12.2222 202 12.2222 199.222C12.2222 198 11.2222 197 10 197Z" fill="white"/>
</svg>
